<svg width="72.000000pt" height="72.000000pt" viewBox="0 0 72.000000 72.000000" xmlns="http://www.w3.org/2000/svg">
  <g transform="translate(0.000000,72.000000) scale(0.100000,-0.100000)" fill="#fefefe" stroke="none">
    <path d="M0 360 l0 -360 360 0 360 0 0 360 0 360 -360 0 -360 0 0 -360z m84
262 c2 -4 -2 -16 -10 -27 l-14 -19 -12 12 -11 11 13 16 c14 16 26 19 34 7z
m259 -20 c-13 -2 -23 -10 -23 -18 0 -8 -4 -14 -10 -14 -5 0 -10 -9 -10 -20 l0
-20 19 0 19 0 7 -50 7 -50 11 0 c7 0 22 3 35 6 l22 6 0 24 0 24 15 0 c8 0 15
7 15 15 0 8 -7 15 -15 15 l-15 0 0 35 0 35 43 -6 44 -6 6 16 6 16 26 0 c32 0
73 -21 99 -49 l19 -21 -47 16 c-26 9 -50 14 -53 11 -15 -15 10 -35 65 -50 l60
-16 5 -15 c3 -8 -4 -44 -16 -80 l-21 -65 27 -21 c15 -12 27 -26 27 -32 0 -7
-10 -2 -23 10 l-23 22 -33 0 c-44 0 -66 -13 -81 -49 l-12 -30 11 -34 12 -34
25 -12 c37 -16 68 -14 98 10 l26 20 -6 -15 c-8 -21 -66 -46 -91 -40 l-21 6 -6
-20 c-4 -11 -14 -23 -23 -27 l-17 -6 -88 27 -88 27 0 14 c0 7 -7 13 -15 13
l-15 0 0 -20 c0 -11 5 -20 10 -20 6 0 10 -4 10 -10 0 -5 -6 -7 -14 -4 -8 3
-28 -4 -45 -17 l-29 -22 -48 19 -47 19 -4 17 -5 17 -26 3 -26 3 -31 49 -30 49
13 5 c6 2 12 12 12 22 0 9 7 23 15 30 8 7 15 19 15 27 l0 15 -19 -5 -19 -5 -4
56 -3 57 20 29 c11 16 33 38 48 50 l28 21 8 -14 9 -13 21 7 c21 6 30 35 11 35
-5 0 -10 5 -10 10 0 6 7 10 15 10 16 0 24 -29 22 -75 l-2 -29 16 -4 16 -3 7
42 7 42 -10 7 c-6 3 -8 15 -5 25 l5 20 47 -4 47 -5 -22 -4z m47 -101 c0 -6 -4
-13 -10 -16 l-10 -6 0 15 c0 9 5 16 10 16 6 0 10 -4 10 -9z m267 -267 c-3 -3
-12 -4 -19 -1 l-13 5 19 1 c11 1 17 -2 13 -5z m-554 -175 l-11 -11 -11 20
c-13 25 -2 37 18 17 l15 -15 -11 -11z" />
    <path d="M430 545 c0 -8 7 -15 15 -15 8 0 15 7 15 15 0 8 -7 15 -15 15 -8 0
-15 -7 -15 -15z" />
    <path d="M133 523 c-15 -5 -18 -33 -4 -33 21 0 41 13 41 26 0 14 -14 17 -37 7z" />
    <path d="M474 495 l-6 -35 10 -13 c6 -6 13 -28 17 -48 l7 -36 38 -12 c20 -6
53 -11 72 -11 l36 0 11 44 c6 25 11 49 11 55 0 5 -14 12 -31 16 l-31 7 -5 19
-5 19 -18 0 c-10 0 -20 -4 -22 -10 l-3 -9 -22 5 -23 6 0 19 0 19 -15 0 -14 0
-7 -35z" />
    <path d="M160 351 c0 -4 12 -30 26 -57 l26 -48 -11 -4 c-16 -5 -14 -32 2 -32
7 0 21 6 32 13 l18 14 -6 30 c-9 45 -87 121 -87 84z" />
    <path d="M440 295 c0 -8 7 -15 15 -15 8 0 15 7 15 15 0 8 -7 15 -15 15 -8 0
-15 -7 -15 -15z" />
    <path d="M103 293 c-15 -5 -18 -33 -4 -33 21 0 41 13 41 26 0 14 -14 17 -37 7z" />
    <path d="M312 213 l3 -18 20 0 20 0 3 18 3 17 -26 0 -26 0 3 -17z" />
  </g>
  <g transform="translate(0.000000,72.000000) scale(0.100000,-0.100000)" fill="#e6f1f5" stroke="none">
    <path d="M460 660 c0 -5 7 -10 15 -10 8 0 15 5 15 10 0 6 -7 10 -15 10 -8 0
-15 -4 -15 -10z" />
    <path d="M306 652 c-3 -6 3 -12 15 -15 l20 -5 -4 11 c-5 15 -24 20 -31 9z" />
    <path d="M636 641 c-4 -5 -2 -12 3 -15 5 -4 12 -2 15 3 4 5 2 12 -3 15 -5 4
-12 2 -15 -3z" />
    <path d="M35 620 l-19 -21 21 -20 20 -21 26 28 26 28 -11 13 c-15 19 -42 16
-63 -7z" />
    <path d="M253 616 l6 -16 -14 0 c-8 0 -15 -4 -15 -10 0 -17 -18 -11 -23 8 l-5
17 -7 -22 -7 -21 -23 -6 c-28 -7 -81 -50 -96 -78 -6 -11 -12 -72 -15 -137 l-3
-117 21 -34 21 -35 8 21 c4 12 14 24 22 27 l15 6 18 -20 c21 -23 40 -24 48 -3
9 23 8 24 -20 34 -28 11 -28 27 2 46 l19 13 0 -31 0 -31 14 -5 14 -5 -6 10
c-4 6 -9 32 -12 58 -2 26 -7 50 -9 53 -3 2 -21 -9 -41 -27 -36 -31 -51 -39
-40 -21 l6 10 -16 0 -17 0 5 -14 6 -15 -15 6 -16 6 5 18 5 19 -11 -7 c-7 -3
-4 3 6 14 l18 21 -6 38 -6 39 20 -25 c11 -14 16 -26 11 -28 -6 -2 -10 -13 -10
-24 l0 -20 28 7 c15 3 31 11 36 16 l10 9 -33 45 -33 45 7 30 6 29 16 -6 16 -6
-7 11 -7 12 15 -6 16 -6 0 22 0 21 26 -20 c29 -23 44 -20 44 9 0 20 19 30 60
30 l29 0 11 -20 c6 -11 15 -18 21 -15 5 4 9 3 8 -2 -4 -20 2 -43 10 -43 5 0 9
14 9 31 l-1 32 -19 5 -18 4 0 29 0 29 -17 0 c-10 1 -36 3 -57 6 l-39 6 6 -16z" />
    <path d="M417 614 c-3 -4 -2 -17 4 -31 5 -13 6 -42 3 -64 l-7 -39 16 0 15 0 6
35 7 35 22 1 c12 1 26 1 31 0 6 -1 23 -5 39 -8 l30 -6 -6 11 -7 10 20 -5 c11
-3 18 -9 15 -13 -3 -5 4 -6 15 -3 l20 5 -5 -14 -6 -15 18 -6 c10 -2 26 -8 36
-12 l17 -7 0 10 c0 6 -12 15 -27 21 l-28 11 23 -4 c23 -4 30 8 11 20 l-11 7
13 9 14 10 -17 -5 -17 -6 -12 15 c-7 9 -24 21 -39 29 l-27 14 -80 0 c-44 0
-83 -2 -86 -5z" />
    <path d="M267 543 c-11 -10 -8 -53 3 -53 6 0 10 14 10 30 0 31 -2 35 -13 23z" />
    <path d="M310 530 c0 -5 5 -10 10 -10 6 0 10 -9 10 -20 0 -11 6 -20 13 -20
l14 0 -5 30 -4 30 -19 0 c-11 0 -19 -4 -19 -10z" />
    <path d="M496 505 l-6 -16 25 -9 c14 -5 32 -7 40 -4 22 9 18 31 -7 38 -35 9
-45 7 -52 -9z" />
    <path d="M600 479 c0 -17 31 -38 58 -39 l22 0 0 14 c0 18 -6 22 -47 31 l-33 7
0 -13z" />
    <path d="M370 470 c0 -5 5 -10 10 -10 6 0 10 5 10 10 0 6 -4 10 -10 10 -5 0
-10 -4 -10 -10z" />
    <path d="M685 439 l-7 -32 -8 13 -7 12 -8 -12 -8 -12 13 -8 c6 -4 12 -24 13
-44 l1 -36 11 0 c21 0 25 13 10 36 l-15 23 15 42 c18 49 18 49 6 49 -5 0 -13
-14 -16 -31z" />
    <path d="M340 405 c0 -8 7 -15 15 -15 8 0 15 7 15 15 0 8 -7 15 -15 15 -8 0
-15 -7 -15 -15z" />
    <path d="M490 406 c0 -9 5 -16 10 -16 6 0 10 4 10 9 0 6 -4 13 -10 16 l-10 6
0 -15z" />
    <path d="M520 361 c0 -10 50 -25 58 -17 2 3 -7 10 -22 16 -33 12 -36 12 -36 1z" />
    <path d="M615 360 c-3 -5 -1 -10 4 -10 6 0 11 5 11 10 0 6 -2 10 -4 10 -3 0
-8 -4 -11 -10z" />
    <path d="M20 320 c0 -5 5 -10 10 -10 6 0 10 5 10 10 0 6 -4 10 -10 10 -5 0
-10 -4 -10 -10z" />
    <path d="M440 307 c0 -8 7 -14 15 -14 8 0 15 6 15 14 0 7 -7 13 -15 13 -8 0
-15 -6 -15 -13z" />
    <path d="M675 290 c20 -22 31 -20 22 5 -4 8 -14 15 -23 15 l-17 0 18 -20z" />
    <path d="M544 265 c-3 -14 -3 -37 1 -52 7 -31 41 -63 64 -63 l16 1 -19 14
c-11 8 -23 15 -27 15 -4 0 -12 14 -18 31 l-11 31 10 18 c13 23 13 30 0 30 -5
0 -12 -11 -16 -25z" />
    <path d="M614 249 c-8 -13 13 -29 38 -29 9 0 20 5 23 10 l6 10 -26 10 c-33 12
-32 12 -41 -1z" />
    <path d="M330 231 c0 -5 7 -11 15 -15 l15 -5 0 14 c0 8 -7 15 -15 15 -8 0 -15
-4 -15 -9z" />
    <path d="M143 156 l-22 -12 8 -12 c9 -14 81 -45 89 -38 3 3 -2 14 -11 24 -10
10 -17 26 -17 35 0 19 -15 20 -47 3z" />
    <path d="M690 161 c0 -5 -13 -12 -30 -16 -16 -4 -30 -11 -30 -16 0 -12 7 -11
46 7 32 15 45 34 24 34 -5 0 -10 -4 -10 -9z" />
    <path d="M333 133 c-3 -7 -2 -16 1 -21 3 -6 -2 -16 -12 -23 l-17 -14 15 20 15
20 -18 -14 c-10 -8 -14 -18 -10 -22 4 -4 26 -8 48 -9 60 -4 162 1 148 6 -7 3
-10 11 -7 18 l5 14 -27 6 c-35 9 -44 -1 -13 -14 l24 -10 -27 5 -26 5 -4 -12
-4 -12 -6 22 -6 22 10 -7 11 -6 -8 12 -7 13 -24 -6 -23 -6 5 14 6 15 -22 -2
c-12 -1 -24 -7 -27 -14z m37 -37 c0 -3 -4 -8 -10 -11 -5 -3 -10 -1 -10 4 0 6
5 11 10 11 6 0 10 -2 10 -4z" />
    <path d="M64 96 c-7 -19 13 -56 30 -56 8 0 19 7 26 15 l13 15 -18 20 c-21 23
-43 26 -51 6z" />
    <path d="M570 100 c0 -5 5 -10 10 -10 6 0 10 5 10 10 0 6 -4 10 -10 10 -5 0
-10 -4 -10 -10z" />
    <path d="M235 80 c3 -5 10 -10 16 -10 5 0 9 5 9 10 0 6 -7 10 -16 10 l-15 0 6
-10z" />
    <path d="M140 50 c0 -5 4 -10 9 -10 6 0 13 5 16 10 l6 10 -15 0 c-9 0 -16 -4
-16 -10z" />
  </g>
  <g transform="translate(0.000000,72.000000) scale(0.100000,-0.100000)" fill="#2d426a" stroke="none">
    <path d="M392 609 c2 -7 10 -15 17 -17 l14 -4 -5 13 c-2 7 -10 15 -17 17 l-13
5 4 -14z" />
    <path d="M467 550 c-15 -12 -28 -31 -28 -43 l-1 -22 -5 18 c-6 23 -23 22 -23
-2 l0 -20 18 -4 17 -5 -17 -1 c-10 0 -18 -7 -18 -15 l0 -13 42 -6 c24 -3 45
-3 48 -1 3 3 -3 11 -13 18 l-17 13 13 25 13 25 24 -10 c41 -16 50 -16 50 2 0
25 -21 49 -50 56 l-26 6 -27 -21z" />
    <path d="M364 515 c-7 -18 3 -35 23 -35 l15 0 -6 16 c-3 9 -6 20 -6 25 0 15
-20 10 -26 -6z" />
    <path d="M600 515 c0 -8 6 -15 13 -15 7 0 20 -9 30 -20 9 -11 26 -20 37 -20
l20 0 0 21 0 20 -35 15 c-44 18 -65 18 -65 -1z" />
    <path d="M661 421 c-6 -10 -8 -21 -5 -24 3 -3 1 -15 -5 -26 l-11 -20 -15 5
c-8 4 -15 1 -15 -4 0 -6 10 -14 21 -17 l22 -7 11 18 c6 11 16 36 22 57 l12 37
-14 0 c-7 0 -18 -8 -23 -19z" />
    <path d="M511 360 l-12 -7 6 -35 7 -35 -36 -7 -36 -7 0 -14 c0 -17 -17 -20
-22 -5 l-3 10 -33 -6 -32 -6 0 -30 0 -30 -15 12 c-9 7 -17 11 -19 9 -8 -8 7
-99 15 -99 5 0 12 12 15 26 l6 25 23 -21 c13 -12 28 -19 34 -16 6 4 28 -2 50
-13 21 -11 53 -23 71 -26 l32 -6 14 12 c8 6 14 24 14 40 l0 29 -14 0 c-8 0
-16 -5 -18 -12 l-4 -12 -12 8 -12 7 11 17 11 18 -15 37 -16 37 10 0 c5 0 14
11 19 25 5 14 14 25 20 25 5 0 10 9 10 19 l0 19 -29 10 c-15 5 -34 7 -40 2z
m-81 -170 c0 -5 -4 -10 -9 -10 -6 0 -13 5 -16 10 l-6 10 15 0 c9 0 16 -4 16
-10z m60 -20 c0 -5 -2 -10 -4 -10 -3 0 -8 5 -11 10 -3 6 -1 10 4 10 6 0 11 -4
11 -10z" />
    <path d="M333 332 l-63 -15 0 -14 c0 -17 17 -16 95 3 l65 16 0 14 c0 17 -17
16 -97 -4z" />
    <path d="M170 255 c0 -8 7 -15 15 -15 8 0 15 7 15 15 0 8 -7 15 -15 15 -8 0
-15 -7 -15 -15z" />
    <path d="M110 185 l0 -15 19 0 c11 0 21 -5 23 -12 l4 -12 12 8 c17 10 15 26
-3 26 -8 0 -15 5 -15 10 0 6 -9 10 -20 10 l-20 0 0 -15z" />
    <path d="M237 193 c-2 -5 -5 -23 -5 -40 l-1 -33 13 0 c7 0 21 6 31 14 l19 14
-12 26 c-11 25 -36 35 -45 19z" />
    <path d="M270 84 c0 -9 5 -14 12 -12 18 6 21 28 4 28 -9 0 -16 -7 -16 -16z" />
  </g>
  <g transform="translate(0.000000,72.000000) scale(0.100000,-0.100000)" fill="#d1e1ec" stroke="none">
    <path d="M206 608 c-22 -31 -20 -41 7 -32 31 9 34 14 17 24 l-15 10 28 0 28 0
-6 10 c-11 17 -43 11 -59 -12z" />
    <path d="M326 608 c3 -4 10 -6 15 -3 5 4 9 -1 9 -9 l0 -15 27 14 c15 8 31 11
36 8 l10 -6 -6 11 c-4 5 -27 10 -52 10 -24 -1 -42 -5 -39 -10z" />
    <path d="M470 588 c0 -5 -4 -6 -10 -3 l-10 6 0 -31 0 -31 11 6 c6 4 8 13 5 21
-7 17 4 18 41 2 15 -6 30 -12 33 -13 3 -1 13 -5 23 -10 10 -4 21 -5 24 -1 3 3
-5 10 -18 14 -13 5 -22 13 -20 18 3 5 -4 10 -15 11 l-19 3 20 -9 20 -10 -16 0
c-22 -1 -31 10 -19 24 l10 12 -30 0 c-17 0 -30 -4 -30 -9z" />
    <path d="M411 573 c2 -35 14 -58 33 -61 l18 -3 -16 23 c-9 12 -16 30 -16 40 0
10 -4 18 -10 18 -5 0 -10 -8 -9 -17z" />
    <path d="M218 559 c-21 -11 -38 -17 -38 -14 0 12 -78 -35 -85 -52 -19 -42 -20
-56 -12 -123 3 -25 1 -50 -4 -56 -4 -5 -6 -20 -2 -32 l5 -22 13 10 13 11 8
-13 7 -13 -8 8 c-10 9 -45 -21 -45 -40 0 -17 11 -16 35 5 21 17 40 53 27 50
-15 -3 -42 15 -42 27 0 7 9 15 20 18 l20 5 -6 16 -6 16 16 -6 16 -6 0 12 c0 6
-11 26 -24 43 -12 18 -27 38 -31 46 l-8 14 13 -8 13 -8 -6 16 -6 16 14 -5 13
-6 12 22 12 22 -11 -6 c-6 -4 -11 -5 -11 -2 0 3 10 10 21 17 l21 11 -6 -11 -7
-11 15 0 c9 0 16 5 16 10 0 6 7 10 16 10 l15 0 -7 13 -7 12 14 -13 13 -12 11
19 10 19 20 -15 20 -15 -12 -5 c-18 -7 -16 -33 2 -33 8 0 15 -4 15 -10 0 -5
11 -10 24 -10 l23 0 -1 23 c0 12 -9 25 -18 29 -10 4 -18 17 -18 28 l0 20 -27
0 c-16 -1 -45 -10 -65 -21z" />
    <path d="M355 550 l-6 -10 16 0 16 0 -6 10 c-3 6 -8 10 -10 10 -2 0 -7 -4 -10
-10z" />
    <path d="M473 496 l0 -14 14 5 c7 3 13 9 13 14 0 5 -6 9 -13 9 -8 0 -14 -6
-14 -14z" />
    <path d="M533 498 c2 -13 70 -48 93 -48 l14 0 0 19 0 19 -22 6 c-33 8 -40 7
-33 -4 10 -16 -12 -12 -29 5 -18 18 -27 19 -23 3z" />
    <path d="M365 470 c4 -6 11 -8 16 -5 14 9 11 15 -7 15 l-15 0 6 -10z" />
    <path d="M483 445 c0 -8 4 -15 9 -15 4 0 8 4 8 9 0 6 -4 12 -8 15 -5 3 -9 -1
-9 -9z" />
    <path d="M375 440 l-6 -10 15 0 c9 0 16 5 16 10 0 6 -4 10 -9 10 -6 0 -13 -4
-16 -10z" />
    <path d="M116 429 c6 -8 26 -34 44 -59 19 -25 27 -39 17 -31 -24 19 -32 8 -13
-21 8 -12 14 -27 14 -33 -1 -5 7 -12 18 -14 l19 -3 -17 19 -17 18 9 14 8 14
-11 21 c-7 12 -18 25 -24 29 -7 4 -13 13 -13 20 0 7 -10 18 -22 26 l-23 14 11
-14z" />
    <path d="M190 405 c0 -8 7 -15 15 -15 8 0 15 7 15 15 0 8 -7 15 -15 15 -8 0
-15 -7 -15 -15z" />
    <path d="M283 403 c-13 -2 -23 -11 -23 -19 0 -15 12 -17 59 -8 l31 7 0 13 0
14 -22 -1 c-13 -1 -33 -4 -45 -6z" />
    <path d="M663 365 c0 -8 4 -12 9 -9 4 3 8 9 8 15 0 5 -4 9 -8 9 -5 0 -9 -7 -9
-15z" />
    <path d="M598 353 c-24 -6 -23 -23 2 -23 l20 0 0 15 c0 8 -1 14 -2 14 -2 -1
-11 -3 -20 -6z" />
    <path d="M580 310 c0 -5 4 -10 9 -10 6 0 13 5 16 10 l6 10 -15 0 c-9 0 -16 -4
-16 -10z" />
    <path d="M350 295 c0 -8 7 -15 15 -15 8 0 15 7 15 15 0 8 -7 15 -15 15 -8 0
-15 -7 -15 -15z" />
    <path d="M620 270 c0 -16 5 -30 10 -30 6 0 10 14 10 30 0 17 -4 30 -10 30 -5
0 -10 -13 -10 -30z" />
    <path d="M233 263 l2 -28 -15 -1 c-8 -1 -22 -2 -30 -3 l-16 -1 0 -18 c0 -10 6
-19 14 -19 l13 0 -5 13 c-3 8 0 16 6 20 l11 7 -7 -11 -7 -12 13 0 c8 0 22 6
32 13 l17 13 -6 27 c-9 35 -24 35 -22 0z" />
    <path d="M697 253 c6 -42 10 -49 19 -40 9 9 -5 77 -16 77 l-9 0 6 -37z" />
    <path d="M144 259 c-3 -6 -1 -16 5 -22 l11 -11 0 22 c0 24 -5 28 -16 11z" />
    <path d="M540 216 c0 -9 5 -16 10 -16 6 0 10 4 10 9 0 6 -4 13 -10 16 l-10 6
0 -15z" />
    <path d="M95 209 c-4 -6 -5 -13 -2 -16 7 -7 27 6 27 18 0 12 -17 12 -25 -2z" />
    <path d="M345 211 c-3 -6 -10 -9 -14 -7 -4 3 -8 -1 -8 -9 0 -20 26 -19 34 0 7
19 -2 31 -12 16z" />
    <path d="M665 174 l-30 -24 16 0 c21 0 53 24 48 38 l-4 10 -30 -24z" />
    <path d="M160 176 c0 -2 7 -9 15 -16 l15 -12 0 16 c0 9 -7 16 -15 16 -8 0 -15
-2 -15 -4z" />
    <path d="M140 152 c0 -4 14 -16 30 -25 l30 -18 0 16 0 16 -17 -3 -18 -3 3 13
c1 6 -5 12 -13 12 -8 0 -15 -4 -15 -8z" />
    <path d="M365 124 c5 -44 12 -53 21 -29 l7 17 -14 10 -14 9 25 -7 c14 -4 31
-9 38 -11 6 -3 12 0 12 6 0 10 -21 16 -43 12 -4 -1 -10 6 -13 14 -11 29 -24
15 -19 -21z" />
    <path d="M605 130 c3 -5 12 -10 20 -10 8 0 17 5 20 10 l6 10 -26 0 -26 0 6
-10z" />
    <path d="M690 130 c0 -5 5 -10 10 -10 6 0 10 5 10 10 0 6 -4 10 -10 10 -5 0
-10 -4 -10 -10z" />
    <path d="M400 91 c0 -6 5 -13 10 -16 l10 -6 0 15 c0 9 -4 16 -10 16 -5 0 -10
-4 -10 -9z" />
    <path d="M555 90 c-3 -5 -2 -10 4 -10 5 0 13 5 16 10 3 6 2 10 -4 10 -5 0 -13
-4 -16 -10z" />
    <path d="M245 80 c7 -12 42 -13 49 -2 2 4 -9 9 -25 10 l-30 2 6 -10z" />
  </g>
  <g transform="translate(0.000000,72.000000) scale(0.100000,-0.100000)" fill="#2e64be" stroke="none">
    <path d="M398 447 l-68 -9 0 -14 c0 -8 8 -14 19 -14 l19 0 6 -22 c3 -13 2 -24
-3 -26 -4 -1 -17 -9 -27 -17 l-19 -15 15 -11 15 -11 -25 6 -26 5 -2 -27 c-1
-15 -7 -28 -12 -30 -12 -4 -14 -52 -2 -52 4 0 32 9 62 19 30 11 58 17 63 14 4
-3 23 2 42 11 18 9 40 14 48 10 l15 -5 4 30 c3 17 1 31 -4 31 -5 0 -8 10 -6
23 3 32 -13 97 -24 97 -5 0 -6 5 -3 10 7 11 7 11 -87 -3z m-11 -123 c-3 -3
-12 -4 -19 -1 l-13 5 19 1 c11 1 17 -2 13 -5z m103 -18 c0 -2 -9 -6 -20 -9
-11 -3 -20 -1 -20 4 0 5 9 9 20 9 11 0 20 -2 20 -4z" />
    <path d="M290 415 c0 -8 7 -15 15 -15 8 0 15 7 15 15 0 8 -7 15 -15 15 -8 0
-15 -7 -15 -15z" />
    <path d="M238 413 l-17 -4 -6 -29 -7 -30 20 -52 c11 -29 17 -59 15 -65 l-5
-13 17 0 18 0 -6 30 -6 30 14 0 14 0 -2 21 -1 20 -18 -4 -17 -5 -6 29 c-7 32
0 49 21 49 8 0 14 7 14 15 0 15 -10 17 -42 8z" />
    <path d="M647 343 c-12 -11 -8 -23 8 -23 8 0 15 7 15 15 0 16 -12 20 -23 8z" />
    <path d="M616 245 l-5 -15 14 0 c16 0 20 16 6 24 -5 3 -11 -1 -15 -9z" />
    <path d="M520 206 c0 -2 7 -9 15 -16 l15 -12 0 16 c0 9 -7 16 -15 16 -8 0 -15
-2 -15 -4z" />
    <path d="M536 155 c-9 -24 -8 -25 18 -25 l24 0 -2 18 c-4 22 -32 28 -40 7z" />
  </g>
  <g transform="translate(0.000000,72.000000) scale(0.100000,-0.100000)" fill="#132858" stroke="none">
    <path d="M406 602 c-3 -6 -2 -13 3 -16 l9 -6 -5 -43 -6 -42 12 10 c6 6 13 24
16 40 l6 30 -14 19 -14 19 -7 -11z" />
    <path d="M454 549 c-3 -6 -2 -15 3 -20 l9 -9 12 20 12 20 -14 0 c-8 0 -18 -5
-22 -11z" />
    <path d="M525 533 c9 -36 14 -41 25 -23 l10 15 0 -16 0 -16 28 -6 c15 -3 34
-8 42 -11 l15 -6 13 21 c7 11 11 24 7 27 -3 4 -10 0 -15 -8 l-10 -15 0 16 0
17 -42 10 -42 11 -8 -12 -8 -12 0 18 c0 9 -5 17 -11 17 l-11 0 7 -27z" />
    <path d="M196 543 c-11 -11 -6 -23 9 -23 8 0 15 4 15 9 0 13 -16 22 -24 14z" />
    <path d="M373 518 c0 -7 -4 -21 -8 -32 l-8 -18 18 3 c10 2 20 10 23 18 l5 14
-14 -9 -14 -8 12 16 c7 8 10 18 6 21 -10 11 -20 8 -20 -5z" />
    <path d="M500 520 c0 -5 5 -10 10 -10 6 0 10 5 10 10 0 6 -4 10 -10 10 -5 0
-10 -4 -10 -10z" />
    <path d="M440 511 c0 -6 5 -13 10 -16 l10 -6 0 15 c0 9 -4 16 -10 16 -5 0 -10
-4 -10 -9z" />
    <path d="M470 510 c0 -5 5 -10 10 -10 6 0 10 5 10 10 0 6 -4 10 -10 10 -5 0
-10 -4 -10 -10z" />
    <path d="M685 491 l7 -24 -15 6 -16 6 3 -34 c1 -19 -1 -35 -5 -35 -4 0 -10
-12 -13 -27 l-7 -26 17 -16 17 -16 -6 23 -5 22 10 0 c6 0 8 7 4 15 l-5 15 10
0 11 0 -6 15 c-3 8 -2 15 3 15 5 0 12 12 15 27 l7 26 -16 16 -17 16 7 -24z" />
    <path d="M430 475 c0 -8 5 -15 10 -15 6 0 10 7 10 15 0 8 -4 15 -10 15 -5 0
-10 -7 -10 -15z" />
    <path d="M460 470 c0 -11 5 -20 10 -20 6 0 10 9 10 20 0 11 -4 20 -10 20 -5 0
-10 -9 -10 -20z" />
    <path d="M505 360 c3 -5 10 -10 16 -10 5 0 9 5 9 10 0 6 -7 10 -16 10 l-15 0
6 -10z" />
    <path d="M535 350 c-3 -5 -3 -15 1 -21 l7 -11 8 13 c5 8 9 17 9 22 0 10 -18 9
-25 -3z" />
    <path d="M610 345 l0 -15 20 0 c11 0 20 2 20 5 0 2 -9 9 -20 15 l-20 11 0 -16z" />
    <path d="M565 340 c-3 -6 1 -13 10 -16 19 -8 30 0 20 15 -8 14 -22 14 -30 1z" />
    <path d="M425 330 c3 -5 8 -10 11 -10 2 0 4 5 4 10 0 6 -5 10 -11 10 -5 0 -7
-4 -4 -10z" />
    <path d="M510 320 c0 -5 5 -10 11 -10 5 0 7 5 4 10 -3 6 -8 10 -11 10 -2 0 -4
-4 -4 -10z" />
    <path d="M283 305 c0 -8 6 -15 12 -15 6 0 12 7 12 15 0 8 -6 15 -12 15 -6 0
-12 -7 -12 -15z" />
    <path d="M541 307 c-6 -8 -8 -17 -4 -20 7 -8 33 11 33 24 0 13 -16 11 -29 -4z" />
    <path d="M503 247 c0 -8 6 -14 14 -14 7 0 13 6 13 14 0 7 -6 13 -13 13 -8 0
-14 -6 -14 -13z" />
    <path d="M621 241 l-13 -8 12 -8 c13 -8 24 -1 19 14 l-4 10 -14 -8z" />
    <path d="M346 209 l-6 -31 18 -23 c9 -14 23 -22 30 -20 6 2 12 1 12 -4 0 -10
71 -32 82 -25 4 3 8 0 8 -6 l0 -12 15 6 c8 3 15 1 15 -4 0 -15 33 -12 58 6 12
8 22 24 22 36 l0 20 -16 -6 c-9 -3 -19 -6 -22 -6 -4 0 -1 -4 7 -9 l15 -9 -12
-15 -12 -14 -87 29 c-48 16 -94 35 -101 41 l-14 11 6 28 c3 15 2 30 -3 32 -5
3 -11 -8 -15 -25z" />
    <path d="M420 215 l-12 -15 15 0 c8 0 17 7 21 15 3 8 2 15 -3 15 -5 0 -14 -7
-21 -15z" />
    <path d="M470 208 l0 -9 13 7 12 8 -14 -17 -13 -17 11 0 c7 0 19 -7 27 -15 17
-17 44 -9 44 13 l0 16 -11 -11 c-12 -12 -39 -7 -39 8 0 5 9 9 20 9 35 0 21 15
-15 16 -19 0 -35 -3 -35 -8z" />
    <path d="M257 189 c6 -6 9 -18 6 -27 l-6 -15 13 8 13 8 -8 -13 -8 -13 -18 24
-19 24 0 -17 c0 -9 5 -20 10 -23 6 -4 8 -11 5 -16 -4 -5 3 -9 14 -9 11 0 22 4
25 9 3 5 3 23 0 40 l-6 31 -16 0 -16 0 11 -11z" />
    <path d="M133 183 c-18 -7 -16 -23 2 -23 8 0 15 7 15 15 0 8 -1 15 -2 14 -2 0
-9 -3 -15 -6z" />
    <path d="M430 181 c0 -5 7 -11 15 -15 8 -3 15 -1 15 3 0 5 -7 11 -15 15 -8 3
-15 1 -15 -3z" />
    <path d="M307 124 c-30 -40 -16 -62 16 -26 10 10 14 22 10 25 -3 4 -1 7 5 7 7
0 12 4 12 8 0 17 -26 8 -43 -14z" />
  </g>
  <g transform="translate(0.000000,72.000000) scale(0.100000,-0.100000)" fill="#bccadd" stroke="none">
    <path d="M214 615 l-19 -15 18 -14 c9 -7 17 -19 17 -26 l0 -12 15 12 15 13
-17 12 c-10 7 -21 11 -25 9 -5 -3 -8 -3 -8 1 0 3 10 9 22 14 l21 8 -10 6 c-5
4 -19 0 -29 -8z" />
    <path d="M477 614 c-4 -4 -7 -17 -7 -28 l1 -21 10 18 c11 19 8 43 -4 31z" />
    <path d="M390 605 c0 -2 6 -8 13 -14 l14 -11 0 13 c0 8 -6 14 -14 14 -7 0 -13
-1 -13 -2z" />
    <path d="M345 591 c-3 -6 -17 -11 -31 -11 l-25 0 6 -10 6 -10 -15 0 -16 0 0
-20 0 -20 43 1 42 0 -20 8 c-11 5 -23 7 -27 4 -4 -2 -5 3 -2 11 3 9 15 16 25
16 11 0 22 7 26 15 7 19 -2 31 -12 16z" />
    <path d="M503 588 c-5 -7 -13 -19 -17 -25 l-7 -13 15 6 c14 5 30 33 23 41 -2
2 -9 -2 -14 -9z" />
    <path d="M431 554 l1 -19 5 13 c3 7 2 16 -1 19 -3 4 -6 -2 -5 -13z" />
    <path d="M411 544 l1 -19 5 13 c3 7 2 16 -1 19 -3 4 -6 -2 -5 -13z" />
    <path d="M180 530 c0 -5 5 -10 10 -10 6 0 10 5 10 10 0 6 -4 10 -10 10 -5 0
-10 -4 -10 -10z" />
    <path d="M210 523 c0 -7 7 -13 15 -13 8 0 15 6 15 13 0 8 -7 14 -15 14 -8 0
-15 -6 -15 -14z" />
    <path d="M600 530 c8 -5 22 -9 30 -9 l15 0 -20 9 c-27 12 -43 12 -25 0z" />
    <path d="M369 526 c-1 -3 -2 -9 -3 -13 -1 -5 -5 -14 -9 -20 l-8 -13 15 0 c9 0
16 6 16 13 l0 12 10 -15 10 -15 -3 24 c-2 14 -9 27 -15 29 -7 2 -13 1 -13 -2z" />
    <path d="M497 514 c-8 -9 14 -30 40 -38 l20 -6 14 17 14 17 -19 -7 c-23 -9
-58 1 -51 14 7 10 -8 13 -18 3z" />
    <path d="M129 494 l-13 -16 18 3 c11 2 21 10 24 17 5 17 -13 15 -29 -4z" />
    <path d="M280 495 l0 -15 18 0 19 0 0 15 0 15 -19 0 -18 0 0 -15z" />
    <path d="M240 483 c0 -7 7 -13 15 -13 8 0 15 6 15 13 0 8 -7 14 -15 14 -8 0
-15 -6 -15 -14z" />
    <path d="M694 462 l-2 -37 10 28 10 29 -8 8 -9 9 -1 -37z" />
    <path d="M420 480 c0 -5 5 -10 10 -10 6 0 10 5 10 10 0 6 -4 10 -10 10 -5 0
-10 -4 -10 -10z" />
    <path d="M597 483 c-14 -13 -6 -22 28 -33 19 -6 35 -17 35 -23 l0 -12 10 15
c13 20 13 40 -1 40 -5 0 -7 -4 -4 -10 l6 -10 -15 6 c-9 3 -13 10 -10 15 3 5 0
9 -5 9 -6 0 -11 -5 -11 -11 0 -5 -5 -7 -10 -4 -6 4 -8 11 -5 16 7 10 -8 12
-18 2z" />
    <path d="M150 465 c0 -8 7 -15 15 -15 8 0 15 7 15 15 0 8 -7 15 -15 15 -8 0
-15 -7 -15 -15z" />
    <path d="M466 465 l-5 -15 14 0 14 0 -5 15 c-4 8 -7 15 -9 15 -2 0 -5 -7 -9
-15z" />
    <path d="M107 444 l17 -27 4 12 c2 6 -3 18 -11 26 -24 24 -29 18 -10 -11z" />
    <path d="M385 440 c-3 -5 -2 -10 4 -10 5 0 13 5 16 10 3 6 2 10 -4 10 -5 0
-13 -4 -16 -10z" />
    <path d="M430 430 c0 -5 7 -10 15 -10 8 0 15 5 15 10 0 6 -7 10 -15 10 -8 0
-15 -4 -15 -10z" />
    <path d="M485 430 c3 -5 8 -10 11 -10 2 0 4 5 4 10 0 6 -5 10 -11 10 -5 0 -7
-4 -4 -10z" />
    <path d="M202 418 c6 -18 28 -21 28 -4 0 9 -7 16 -16 16 -9 0 -14 -5 -12 -12z" />
    <path d="M332 408 c6 -18 25 -21 25 -3 0 8 -7 15 -14 15 -8 0 -13 -5 -11 -12z" />
    <path d="M180 396 c0 -9 7 -16 16 -16 17 0 14 22 -4 28 -7 2 -12 -3 -12 -12z" />
    <path d="M292 398 c6 -18 25 -21 25 -3 0 8 -7 15 -14 15 -8 0 -13 -5 -11 -12z" />
    <path d="M490 401 c0 -5 5 -13 10 -16 6 -3 10 -2 10 4 0 5 -4 13 -10 16 -5 3
-10 2 -10 -4z" />
    <path d="M651 403 c-1 -6 -4 -20 -7 -30 l-6 -18 12 18 c6 10 9 23 6 30 l-4 12
-1 -12z" />
    <path d="M250 385 c0 -8 6 -15 13 -15 8 0 14 7 14 15 0 8 -6 15 -14 15 -7 0
-13 -7 -13 -15z" />
    <path d="M130 360 c0 -5 5 -10 11 -10 5 0 7 5 4 10 -3 6 -8 10 -11 10 -2 0 -4
-4 -4 -10z" />
    <path d="M170 361 c0 -6 5 -13 10 -16 l10 -6 0 15 c0 9 -4 16 -10 16 -5 0 -10
-4 -10 -9z" />
    <path d="M200 321 c0 -6 5 -13 10 -16 l10 -6 0 15 c0 9 -4 16 -10 16 -5 0 -10
-4 -10 -9z" />
    <path d="M610 320 c0 -9 32 -14 70 -12 8 0 18 -5 22 -11 4 -6 10 -8 14 -4 14
14 -16 31 -61 33 l-45 3 0 -9z" />
    <path d="M363 296 l0 -14 14 5 c7 3 13 9 13 14 0 5 -6 9 -13 9 -8 0 -14 -6
-14 -14z" />
    <path d="M441 299 c-1 -9 7 -19 17 -21 l19 -5 0 14 0 14 -13 -5 c-7 -3 -15 0
-18 7 l-4 12 -1 -16z" />
    <path d="M81 284 c-18 -21 -6 -30 14 -10 18 18 35 21 35 6 0 -5 5 -10 10 -10
6 0 10 7 10 15 l0 15 -27 0 c-16 -1 -34 -8 -42 -16z" />
    <path d="M163 287 c1 -6 10 -15 20 -19 l18 -8 -5 -27 c-2 -16 -5 -32 -5 -37
-1 -5 -12 1 -25 14 l-25 23 -18 -9 -18 -8 26 -3 27 -4 5 -20 c7 -25 29 -24 46
3 l14 22 -12 4 -12 4 11 13 c14 17 4 40 -25 53 l-25 11 3 -12z" />
    <path d="M310 290 c0 -5 9 -10 20 -10 11 0 20 5 20 10 0 6 -9 10 -20 10 -11 0
-20 -4 -20 -10z" />
    <path d="M270 275 c0 -8 7 -15 15 -15 8 0 15 7 15 15 0 8 -7 15 -15 15 -8 0
-15 -7 -15 -15z" />
    <path d="M620 279 c0 -5 5 -7 10 -4 6 3 10 8 10 11 0 2 -4 4 -10 4 -5 0 -10
-5 -10 -11z" />
    <path d="M540 264 l0 -15 10 6 c6 3 10 10 10 16 0 5 -4 9 -10 9 -5 0 -10 -7
-10 -16z" />
    <path d="M700 261 c0 -6 5 -13 10 -16 l10 -6 0 15 c0 9 -4 16 -10 16 -5 0 -10
-4 -10 -9z" />
    <path d="M152 239 c2 -7 10 -15 17 -17 l14 -4 -5 13 c-2 7 -10 15 -17 17 l-13
5 4 -14z" />
    <path d="M620 226 l10 -10 11 11 12 12 -21 -2 -22 -1 10 -10z" />
    <path d="M696 201 c-4 -7 -5 -15 -2 -18 9 -9 19 4 14 18 l-4 13 -8 -13z" />
    <path d="M335 165 c3 -30 15 -46 15 -21 l0 17 11 -7 11 -6 -11 21 c-16 29 -30
27 -26 -4z" />
    <path d="M90 171 c0 -12 29 -35 36 -28 4 3 -1 13 -9 22 -17 17 -27 19 -27 6z" />
    <path d="M686 137 c3 -10 9 -15 12 -12 3 3 0 11 -7 18 l-12 12 7 -18z" />
    <path d="M360 125 c-7 -8 -17 -12 -23 -8 l-10 6 7 -11 c11 -18 24 -14 36 8 13
24 8 26 -10 5z" />
    <path d="M586 113 l-7 -18 12 12 c7 7 10 15 7 18 -3 3 -9 -2 -12 -12z" />
    <path d="M400 103 c0 -4 5 -15 10 -23 l10 -15 0 17 c0 9 -4 20 -10 23 -5 3
-10 3 -10 -2z" />
    <path d="M215 90 c3 -5 10 -10 16 -10 5 0 9 5 9 10 0 6 -7 10 -16 10 l-15 0 6
-10z" />
    <path d="M290 88 c0 -4 4 -8 9 -8 6 0 12 4 15 8 3 5 -1 9 -9 9 -8 0 -15 -4
-15 -9z" />
    <path d="M365 90 c-3 -5 -1 -10 4 -10 6 0 11 5 11 10 0 6 -2 10 -4 10 -3 0 -8
-4 -11 -10z" />
    <path d="M255 80 c3 -5 10 -10 16 -10 5 0 9 5 9 10 0 6 -7 10 -16 10 l-15 0 6
-10z" />
  </g>
  <g transform="translate(0.000000,72.000000) scale(0.100000,-0.100000)" fill="#a2acbf" stroke="none">
    <path d="M207 613 c-12 -11 -8 -43 6 -43 6 -1 41 -2 76 -3 l64 -2 5 18 c4 15
15 21 35 18 4 0 7 4 7 9 l0 10 -93 0 c-52 0 -97 -3 -100 -7z m141 -20 l-3 -18
-40 3 c-60 4 -95 13 -95 23 l0 9 71 0 70 0 -3 -17z" />
    <path d="M430 612 c0 -7 -4 -11 -8 -8 -5 3 -9 -1 -9 -9 l0 -15 15 13 15 12 -6
-25 c-4 -14 -4 -19 -1 -12 3 6 10 10 15 6 14 -8 11 10 -6 32 l-14 19 -1 -13z" />
    <path d="M476 604 c-4 -9 -4 -19 -1 -22 2 -3 7 3 11 12 4 9 4 19 1 22 -2 3 -7
-3 -11 -12z" />
    <path d="M270 556 c0 -2 9 -6 20 -9 l20 -5 -6 9 c-5 9 -34 13 -34 5z" />
    <path d="M455 549 c-4 -6 -5 -12 -2 -15 2 -3 7 2 10 11 7 17 1 20 -8 4z" />
    <path d="M191 536 l-13 -16 22 0 22 0 5 -20 c3 -11 10 -20 15 -20 6 0 7 7 4
16 -3 9 -6 23 -7 32 l-1 17 -5 -13 -5 -13 -12 16 -12 17 -13 -16z" />
    <path d="M412 520 c0 -14 2 -19 5 -12 2 6 2 18 0 25 -3 6 -5 1 -5 -13z" />
    <path d="M283 523 c9 -2 23 -2 30 0 6 3 -1 5 -18 5 l-30 0 18 -5z" />
    <path d="M480 508 c0 -4 9 -12 19 -18 l20 -10 6 10 c3 5 1 10 -5 10 -6 0 -9 4
-6 8 2 4 -4 8 -15 8 -10 0 -19 -4 -19 -8z" />
    <path d="M267 504 c-10 -10 2 -24 19 -24 8 0 13 4 10 9 -4 5 0 12 6 14 l13 5
-21 1 c-11 1 -24 -2 -27 -5z" />
    <path d="M363 492 c-6 -4 -15 -20 -18 -35 l-7 -27 14 0 15 0 -1 23 -1 22 12
-2 12 -3 -5 15 c-7 17 -6 17 -21 7z" />
    <path d="M563 493 c-15 -5 -17 -23 -4 -23 5 0 11 7 15 15 3 8 4 15 3 14 -1 0
-8 -3 -14 -6z" />
    <path d="M115 480 l-6 -10 15 0 c9 0 16 5 16 10 0 6 -4 10 -9 10 -6 0 -13 -4
-16 -10z" />
    <path d="M590 480 c-8 -5 -11 -12 -8 -16 4 -3 14 1 23 10 18 17 9 21 -15 6z" />
    <path d="M140 401 c0 -6 5 -13 10 -16 l10 -6 0 15 c0 9 -4 16 -10 16 -5 0 -10
-4 -10 -9z" />
    <path d="M660 340 l0 -20 14 0 c8 0 16 -6 19 -12 2 -7 7 -10 11 -7 4 4 -4 18
-18 32 l-26 26 0 -19z" />
    <path d="M570 346 c0 -2 7 -7 16 -10 l15 -6 -6 10 c-6 10 -25 14 -25 6z" />
    <path d="M90 320 c-18 -18 -27 -40 -15 -40 5 0 55 50 55 55 0 12 -22 3 -40
-15z" />
    <path d="M164 316 l-6 -16 -24 6 -24 6 0 -11 c0 -6 7 -11 16 -11 8 0 13 -4 10
-8 -3 -5 11 -9 30 -10 l35 -1 -6 9 c-3 5 -13 6 -23 3 l-17 -6 18 20 18 21 -10
7 -11 6 -6 -15z" />
    <path d="M210 311 c0 -12 28 -22 35 -12 3 5 -2 12 -11 15 -21 8 -24 8 -24 -3z" />
    <path d="M456 305 c4 -8 10 -15 15 -15 5 0 9 7 9 15 0 8 -7 15 -15 15 l-14 0
5 -15z" />
    <path d="M240 260 c0 -5 5 -10 10 -10 6 0 10 5 10 10 0 6 -4 10 -10 10 -5 0
-10 -4 -10 -10z" />
    <path d="M165 230 c3 -5 10 -10 16 -10 5 0 9 5 9 10 0 6 -7 10 -16 10 l-15 0
6 -10z" />
    <path d="M322 233 l-23 -5 3 -14 c3 -14 19 -21 17 -8 0 3 8 12 18 20 10 7 16
13 13 12 -3 0 -15 -3 -28 -5z" />
    <path d="M125 220 l-6 -10 16 0 16 0 -6 10 c-3 6 -8 10 -10 10 -2 0 -7 -4 -10
-10z" />
    <path d="M160 187 c0 -9 -8 -20 -17 -26 -21 -12 -13 -24 11 -15 9 3 13 11 10
16 l-7 10 22 -7 21 -6 0 17 c0 10 -3 14 -7 11 -3 -4 -12 -2 -20 4 l-13 11 0
-15z" />
    <path d="M335 190 c-3 -5 -1 -10 4 -10 6 0 11 5 11 10 0 6 -2 10 -4 10 -3 0
-8 -4 -11 -10z" />
    <path d="M100 160 c0 -5 5 -10 10 -10 6 0 10 5 10 10 0 6 -4 10 -10 10 -5 0
-10 -4 -10 -10z" />
    <path d="M663 153 c-14 -5 -18 -23 -5 -23 5 0 17 7 28 15 l19 14 -15 0 c-8 0
-21 -3 -27 -6z" />
    <path d="M180 142 c0 -5 7 -17 15 -28 15 -19 20 -8 9 20 -6 17 -24 22 -24 8z" />
    <path d="M323 115 c0 -8 4 -12 9 -9 5 3 6 10 3 15 -9 13 -12 11 -12 -6z" />
    <path d="M350 109 c0 -5 5 -7 10 -4 6 3 10 1 10 -5 l0 -11 11 7 11 7 -13 8
c-19 12 -29 11 -29 -2z" />
    <path d="M400 101 c0 -6 4 -13 10 -16 l10 -6 -6 15 c-7 18 -14 21 -14 7z" />
    <path d="M545 90 l-20 -9 17 0 c9 -1 20 4 23 9 7 11 7 11 -20 0z" />
  </g>
  <g transform="translate(0.000000,72.000000) scale(0.100000,-0.100000)" fill="#8892a4" stroke="none">
    <path d="M200 585 l0 -14 14 5 15 6 3 -29 3 -28 6 27 6 26 -24 11 -23 11 0
-15z" />
    <path d="M468 553 c7 -3 16 -2 19 1 4 3 -2 6 -13 5 l-19 -1 13 -5z" />
    <path d="M368 543 c7 -3 16 -2 19 1 4 3 -2 6 -13 5 l-19 -1 13 -5z" />
    <path d="M560 530 l-25 -7 28 -8 c16 -4 24 -10 19 -14 -6 -3 11 -7 36 -7 l47
-2 -30 14 c-16 7 -37 13 -45 14 l-15 0 15 10 c17 11 6 11 -30 0z" />
    <path d="M145 500 l-18 -20 12 0 c13 0 41 24 41 34 0 12 -18 5 -35 -14z" />
    <path d="M220 510 c0 -5 5 -10 10 -10 6 0 10 5 10 10 0 6 -4 10 -10 10 -5 0
-10 -4 -10 -10z" />
    <path d="M486 507 c2 -7 21 -17 42 -24 44 -14 58 -8 16 7 -16 5 -37 14 -46 20
l-17 10 5 -13z" />
    <path d="M308 503 c6 -2 18 -2 25 0 6 3 1 5 -13 5 -14 0 -19 -2 -12 -5z" />
    <path d="M413 490 l6 -24 -16 -18 c-21 -24 -12 -23 16 1 l23 20 -17 23 -17 23
5 -25z" />
    <path d="M260 490 c0 -5 7 -10 16 -10 l15 0 -6 10 c-3 6 -10 10 -16 10 -5 0
-9 -4 -9 -10z" />
    <path d="M320 480 c0 -5 5 -10 10 -10 6 0 10 -9 10 -19 0 -21 26 -36 35 -21 4
6 0 10 -8 10 l-14 0 5 25 4 25 -21 0 c-11 0 -21 -4 -21 -10z" />
    <path d="M585 470 c3 -5 8 -10 11 -10 2 0 4 5 4 10 0 6 -5 10 -11 10 -5 0 -7
-4 -4 -10z" />
    <path d="M671 454 l1 -19 5 13 c3 7 2 16 -1 19 -3 4 -6 -2 -5 -13z" />
    <path d="M120 431 c0 -6 5 -13 10 -16 l10 -6 0 15 c0 9 -4 16 -10 16 -5 0 -10
-4 -10 -9z" />
    <path d="M486 427 c3 -10 9 -15 12 -12 3 3 0 11 -7 18 l-12 12 7 -18z" />
    <path d="M150 391 c0 -6 5 -13 10 -16 l10 -6 0 15 c0 9 -4 16 -10 16 -5 0 -10
-4 -10 -9z" />
    <path d="M496 387 c3 -10 9 -15 12 -12 3 3 0 11 -7 18 l-12 12 7 -18z" />
    <path d="M270 340 c0 -32 2 -33 38 -24 l22 6 0 18 0 18 -22 6 c-36 9 -38 8
-38 -24z" />
    <path d="M636 353 l-7 -17 -10 14 -11 15 5 -15 c2 -8 10 -16 18 -18 l15 -3 1
21 c2 25 -3 26 -11 3z" />
    <path d="M122 339 l-13 -21 18 4 c10 2 19 11 21 21 5 23 -10 21 -26 -4z" />
    <path d="M180 351 c0 -6 5 -13 10 -16 l10 -6 0 15 c0 9 -4 16 -10 16 -5 0 -10
-4 -10 -9z" />
    <path d="M472 300 c14 -22 39 -27 36 -7 -4 15 -19 27 -36 27 l-12 0 12 -20z" />
    <path d="M100 300 c0 -5 4 -10 9 -10 6 0 13 5 16 10 l6 10 -15 0 c-9 0 -16 -4
-16 -10z" />
    <path d="M146 295 c-14 -37 33 -90 58 -65 l10 10 -22 0 c-12 0 -22 5 -22 11
l0 10 21 -6 21 -7 -4 13 -5 14 -26 0 c-15 -1 -27 3 -27 7 0 4 5 8 10 8 6 0 10
5 10 10 0 15 -17 12 -24 -5z" />
    <path d="M76 291 c-4 -7 -5 -15 -2 -18 9 -9 19 4 14 18 l-4 13 -8 -13z" />
    <path d="M270 256 l0 -14 23 2 c13 0 24 7 24 14 l0 12 -24 0 -23 0 0 -14z" />
    <path d="M235 230 l-6 -10 16 0 16 0 -6 10 c-3 6 -8 10 -10 10 -2 0 -7 -4 -10
-10z" />
    <path d="M346 225 c4 -8 8 -15 10 -15 2 0 4 7 4 15 0 8 -4 15 -10 15 -5 0 -7
-7 -4 -15z" />
    <path d="M270 216 c0 -9 7 -16 16 -16 17 0 14 22 -4 28 -7 2 -12 -3 -12 -12z" />
    <path d="M140 210 c0 -5 7 -10 16 -10 l15 0 -6 10 c-3 6 -10 10 -16 10 -5 0
-9 -4 -9 -10z" />
    <path d="M96 197 l-9 -19 21 -21 22 -21 12 12 12 12 -21 0 -22 0 -3 28 -4 27
-8 -18z" />
    <path d="M330 186 c0 -2 7 -7 16 -10 l15 -6 -6 10 c-6 10 -25 14 -25 6z" />
    <path d="M700 174 l0 -15 10 6 c6 3 10 10 10 16 0 5 -4 9 -10 9 -5 0 -10 -7
-10 -16z" />
    <path d="M183 164 c-3 -8 -1 -20 6 -27 l11 -11 0 27 c0 30 -7 35 -17 11z" />
    <path d="M330 161 c0 -5 5 -13 10 -16 6 -3 10 -2 10 4 0 5 -4 13 -10 16 -5 3
-10 2 -10 -4z" />
    <path d="M640 140 c0 -5 4 -10 9 -10 6 0 13 5 16 10 l6 10 -15 0 c-9 0 -16 -4
-16 -10z" />
    <path d="M590 129 c0 -5 5 -7 10 -4 6 3 10 8 10 11 0 2 -4 4 -10 4 -5 0 -10
-5 -10 -11z" />
    <path d="M214 95 c22 -17 46 -20 46 -6 0 5 -10 11 -22 15 -37 9 -44 6 -24 -9z" />
    <path d="M570 100 l-15 -10 12 0 c6 0 15 5 18 10 8 12 4 12 -15 0z" />
  </g>
  <g transform="translate(0.000000,72.000000) scale(0.100000,-0.100000)" fill="#3583fb" stroke="none">
    <path d="M310 421 c0 -5 -9 -7 -20 -4 l-20 5 0 -10 0 -10 -22 6 -21 5 7 -11 7
-12 -15 6 -16 6 0 -16 c0 -9 5 -16 11 -16 l11 0 -5 -20 c-3 -11 -1 -20 4 -20
4 0 6 -7 3 -15 l-6 -15 12 0 12 0 -5 -20 c-3 -11 -1 -23 4 -26 6 -3 7 -14 4
-25 l-6 -19 14 0 c18 0 39 24 30 34 -4 3 -8 13 -9 21 l-2 15 18 0 c10 0 22 5
26 11 l7 12 -32 -5 c-17 -2 -31 -1 -31 4 0 4 10 8 23 8 12 0 33 8 46 17 l24
16 -8 -14 c-4 -8 2 -4 14 8 24 25 26 39 8 68 l-12 20 -27 3 c-16 1 -28 -1 -28
-7z m40 -20 c-8 -5 -33 -12 -55 -15 l-40 -6 45 14 c53 17 71 19 50 7z m-30
-62 c0 -5 -7 -6 -15 -3 l-15 6 0 -13 0 -13 -11 11 c-6 6 -8 16 -5 21 7 12 46
4 46 -9z" />
    <path d="M650 321 c0 -5 7 -11 15 -15 l15 -5 0 14 c0 8 -7 15 -15 15 -8 0 -15
-4 -15 -9z" />
    <path d="M552 308 c-14 -14 -16 -38 -4 -38 10 0 42 33 42 43 0 11 -25 8 -38
-5z" />
    <path d="M696 275 c4 -8 10 -15 15 -15 5 0 9 7 9 15 0 8 -7 15 -15 15 l-14 0
5 -15z" />
    <path d="M683 184 c-13 -14 -23 -27 -23 -29 0 -3 7 -5 15 -5 8 0 15 7 15 15 0
8 7 15 15 15 8 0 15 7 15 15 0 21 -11 17 -37 -11z" />
    <path d="M550 176 c0 -9 7 -16 16 -16 9 0 14 5 12 12 -6 18 -28 21 -28 4z" />
    <path d="M522 149 c2 -7 12 -13 22 -15 l17 -2 -4 11 c-2 7 -12 14 -21 15 l-18
4 4 -13z" />
  </g>
  <g transform="translate(0.000000,72.000000) scale(0.100000,-0.100000)" fill="#5498f4" stroke="none">
    <path d="M448 443 c-10 -3 -18 -8 -18 -12 0 -10 39 -11 45 -1 7 11 -6 17 -27
13z" />
    <path d="M360 417 c0 -20 -4 -21 -33 -6 l-22 10 19 -15 c23 -19 26 -19 46 -6
l15 9 -13 13 -12 12 0 -17z" />
    <path d="M284 396 c11 -9 24 -16 30 -16 12 0 7 5 -24 19 l-25 12 19 -15z" />
    <path d="M580 327 c-18 -12 -39 -34 -48 -49 l-16 -27 13 -38 14 -37 -12 -4
c-6 -2 -11 -10 -11 -18 l0 -15 17 10 18 9 26 -15 26 -16 37 7 c21 4 46 16 57
27 l19 19 0 58 0 59 -19 17 c-10 9 -31 19 -47 22 -15 3 -31 7 -35 9 -3 3 -21
-5 -39 -18z m105 -32 l21 -20 0 -40 -1 -40 -15 -16 -15 -16 -45 3 c-60 4 -66
5 -69 18 -1 6 -4 32 -6 58 l-3 47 14 12 c8 6 14 9 14 6 0 -4 10 -2 23 2 32 13
57 9 82 -14z" />
    <path d="M260 330 c0 -5 5 -10 10 -10 6 0 10 5 10 10 0 6 -4 10 -10 10 -5 0
-10 -4 -10 -10z" />
    <path d="M230 309 c0 -5 5 -7 10 -4 6 3 10 8 10 11 0 2 -4 4 -10 4 -5 0 -10
-5 -10 -11z" />
    <path d="M360 308 c0 -4 -9 -8 -19 -8 -32 0 -32 -15 0 -17 l30 -2 -7 11 -7 11
16 -6 15 -6 5 12 5 13 -19 0 c-11 0 -19 -4 -19 -8z" />
    <path d="M280 291 c0 -6 5 -13 10 -16 l10 -6 0 15 c0 9 -4 16 -10 16 -5 0 -10
-4 -10 -9z" />
    <path d="M550 140 c0 -5 5 -10 11 -10 5 0 7 5 4 10 -3 6 -8 10 -11 10 -2 0 -4
-4 -4 -10z" />
  </g>
  <g transform="translate(0.000000,72.000000) scale(0.100000,-0.100000)" fill="#365a8a" stroke="none">
    <path d="M573 533 c-15 -5 -17 -23 -4 -23 5 0 11 7 15 15 3 8 4 15 3 14 -1 0
-8 -3 -14 -6z" />
    <path d="M155 505 c-16 -13 -36 -29 -43 -35 l-12 -11 60 -79 c56 -74 80 -95
80 -70 0 5 -9 15 -20 22 -11 7 -20 18 -20 25 0 7 -7 16 -16 21 l-16 9 12 20
c12 19 36 35 73 49 9 3 17 13 17 22 0 8 -3 12 -7 9 -3 -4 -12 -2 -20 4 l-13
11 0 -11 c0 -6 -10 -11 -22 -11 -13 0 -32 -7 -42 -15 -11 -8 -24 -15 -30 -15
-18 0 58 59 77 60 l18 0 -6 10 c-11 17 -39 11 -70 -15z" />
    <path d="M596 514 c-20 -19 -20 -25 -2 -18 8 3 17 12 20 20 7 18 1 18 -18 -2z" />
    <path d="M617 496 l-6 -15 15 6 c15 6 19 23 5 23 -5 0 -11 -7 -14 -14z" />
    <path d="M410 452 c0 -12 19 -26 26 -19 2 2 -2 10 -11 17 l-15 12 0 -10z" />
    <path d="M462 448 c2 -6 10 -13 16 -14 l13 -2 -11 5 c-5 2 -8 9 -4 14 3 5 0 9
-6 9 -7 0 -10 -5 -8 -12z" />
    <path d="M380 430 c20 -13 33 -13 25 0 -3 6 -14 10 -23 10 l-17 0 15 -10z" />
    <path d="M280 420 c0 -5 4 -10 9 -10 6 0 13 5 16 10 l6 10 -15 0 c-9 0 -16 -4
-16 -10z" />
    <path d="M218 409 c-22 -12 -23 -39 -2 -39 l15 0 -6 10 -6 10 25 10 c14 5 26
12 26 15 0 9 -34 5 -52 -6z" />
    <path d="M486 404 c-4 -9 -4 -19 -1 -22 2 -3 7 3 11 12 4 9 4 19 1 22 -2 3 -7
-3 -11 -12z" />
    <path d="M495 369 c-9 -14 -2 -20 14 -10 l13 9 -10 6 c-6 3 -14 1 -17 -5z" />
    <path d="M354 329 c-3 -6 -1 -16 4 -21 l11 -11 -2 22 c-1 24 -3 25 -13 10z" />
    <path d="M430 329 c0 -5 5 -7 10 -4 6 3 10 8 10 11 0 2 -4 4 -10 4 -5 0 -10
-5 -10 -11z" />
    <path d="M500 320 l0 -24 12 12 12 12 -12 12 -12 12 0 -24z" />
    <path d="M535 330 c3 -5 8 -10 11 -10 2 0 4 5 4 10 0 6 -5 10 -11 10 -5 0 -7
-4 -4 -10z" />
    <path d="M390 320 c0 -5 7 -10 16 -10 l15 0 -6 10 c-3 6 -10 10 -16 10 -5 0
-9 -4 -9 -10z" />
    <path d="M695 310 c10 -11 20 -20 23 -20 3 0 -3 9 -13 20 -10 11 -20 20 -23
20 -3 0 3 -9 13 -20z" />
    <path d="M285 290 c3 -5 8 -10 11 -10 2 0 4 5 4 10 0 6 -5 10 -11 10 -5 0 -7
-4 -4 -10z" />
    <path d="M503 273 c0 -10 4 -21 10 -24 5 -4 6 -12 2 -18 l-7 -12 -19 6 -19 6
0 -10 c0 -11 39 -26 47 -18 2 3 8 21 13 41 l8 36 -9 -6 c-5 -3 -9 0 -9 5 0 6
-4 11 -8 11 -5 0 -9 -8 -9 -17z" />
    <path d="M470 269 c0 -5 5 -7 10 -4 6 3 10 8 10 11 0 2 -4 4 -10 4 -5 0 -10
-5 -10 -11z" />
    <path d="M425 260 l7 -11 -28 7 -27 7 7 -12 c4 -6 12 -9 17 -6 5 4 9 1 9 -4
l0 -11 23 4 c12 3 24 5 26 5 2 1 -2 8 -9 16 -14 17 -35 21 -25 5z" />
    <path d="M340 236 l10 -10 10 10 10 10 -20 0 -20 0 10 -10z" />
    <path d="M630 240 c0 -5 5 -10 11 -10 5 0 7 5 4 10 -3 6 -8 10 -11 10 -2 0 -4
-4 -4 -10z" />
    <path d="M293 225 c0 -9 4 -14 9 -13 5 2 10 8 10 13 0 5 -5 11 -10 13 -5 1 -9
-4 -9 -13z" />
    <path d="M250 215 c0 -8 7 -15 15 -15 8 0 15 4 15 9 0 5 -7 11 -15 15 l-15 5
0 -14z" />
    <path d="M392 193 l3 -18 23 -3 22 -3 0 20 c0 23 -15 28 -23 9 l-5 -13 -1 13
c-1 6 -6 12 -12 12 -6 0 -9 -8 -7 -17z" />
    <path d="M533 173 c-15 -6 -17 -29 -3 -38 l10 -6 -7 17 -6 17 22 -6 22 -5 -12
14 c-6 8 -12 14 -13 13 0 0 -7 -3 -13 -6z" />
    <path d="M587 139 c7 -7 15 -10 18 -7 3 3 -2 9 -12 12 l-18 7 12 -12z" />
  </g>
  <g transform="translate(0.000000,72.000000) scale(0.100000,-0.100000)" fill="#3572d2" stroke="none">
    <path d="M457 443 c-11 -10 -8 -20 7 -26 l14 -6 -2 14 c-3 19 -11 27 -19 18z" />
    <path d="M369 438 c-6 -21 -5 -38 1 -38 5 0 8 9 7 20 -1 17 -5 26 -8 18z" />
    <path d="M405 430 l-20 -9 28 2 c15 1 27 5 27 9 0 10 -9 9 -35 -2z" />
    <path d="M305 420 c4 -6 11 -8 16 -5 14 9 11 15 -7 15 l-15 0 6 -10z" />
    <path d="M265 410 c4 -6 11 -8 16 -5 14 9 11 15 -7 15 l-15 0 6 -10z" />
    <path d="M488 370 c3 -14 5 -34 5 -45 1 -11 6 -23 11 -27 l11 -8 -11 0 c-6 0
-17 7 -24 15 -7 8 -17 15 -23 15 -6 0 -3 -6 8 -13 l18 -14 -8 -13 -8 -12 24 7
c13 4 25 8 26 9 1 1 -2 19 -8 39 -5 21 -7 42 -3 49 l7 11 -11 -7 c-6 -3 -12
-1 -15 6 -2 7 -2 2 1 -12z" />
    <path d="M210 369 c0 -5 5 -7 10 -4 6 3 10 8 10 11 0 2 -4 4 -10 4 -5 0 -10
-5 -10 -11z" />
    <path d="M290 360 c0 -5 5 -10 10 -10 6 0 10 5 10 10 0 6 -4 10 -10 10 -5 0
-10 -4 -10 -10z" />
    <path d="M387 349 c7 -7 15 -10 18 -7 3 3 -2 9 -12 12 l-18 7 12 -12z" />
    <path d="M220 329 c0 -5 5 -7 10 -4 6 3 10 8 10 11 0 2 -4 4 -10 4 -5 0 -10
-5 -10 -11z" />
    <path d="M435 331 c-6 -5 -19 -11 -30 -14 l-20 -5 21 -1 c12 0 27 6 34 14 14
16 10 20 -5 6z" />
    <path d="M667 329 c7 -7 15 -10 18 -7 3 3 -2 9 -12 12 l-18 7 12 -12z" />
    <path d="M297 319 c7 -7 15 -10 18 -7 3 3 -2 9 -12 12 l-18 7 12 -12z" />
    <path d="M565 320 c-3 -5 -1 -10 4 -10 6 0 11 5 11 10 0 6 -2 10 -4 10 -3 0
-8 -4 -11 -10z" />
    <path d="M289 285 c-1 -8 -2 -23 -3 -32 -1 -10 -4 -23 -8 -29 l-7 -11 14 0 c8
0 11 5 8 10 l-6 10 17 -6 17 -7 -6 9 c-3 5 0 11 7 14 7 2 2 2 -12 0 l-25 -3
15 12 c20 18 22 35 5 42 l-15 5 -1 -14z" />
    <path d="M388 263 c-16 -2 -28 -8 -28 -13 l0 -8 38 10 c61 17 57 21 -10 11z" />
    <path d="M525 159 c-11 -16 -1 -19 13 -3 l13 14 -10 0 c-5 0 -13 -5 -16 -11z" />
  </g>
  <g transform="translate(0.000000,72.000000) scale(0.100000,-0.100000)" fill="#5e6b83" stroke="none">
    <path d="M525 530 c3 -5 11 -10 16 -10 6 0 7 5 4 10 -3 6 -11 10 -16 10 -6 0
-7 -4 -4 -10z" />
    <path d="M212 509 c2 -7 10 -15 17 -17 l14 -4 -5 13 c-2 7 -10 15 -17 17 l-13
5 4 -14z" />
    <path d="M625 500 c3 -5 8 -10 11 -10 2 0 4 5 4 10 0 6 -5 10 -11 10 -5 0 -7
-4 -4 -10z" />
    <path d="M300 481 c0 -11 49 -21 55 -11 3 4 -5 10 -18 14 -30 8 -37 7 -37 -3z" />
    <path d="M410 470 l0 -19 14 5 15 6 -6 14 c-8 21 -23 17 -23 -6z" />
    <path d="M105 469 c-10 -15 3 -25 16 -12 l11 11 -10 6 c-6 3 -14 1 -17 -5z" />
    <path d="M240 430 l0 -20 15 0 15 0 0 20 0 20 -15 0 -15 0 0 -20z" />
    <path d="M320 430 c0 -5 4 -10 9 -10 6 0 13 5 16 10 l6 10 -15 0 c-9 0 -16 -4
-16 -10z" />
    <path d="M130 420 c0 -5 5 -10 10 -10 6 0 10 5 10 10 0 6 -4 10 -10 10 -5 0
-10 -4 -10 -10z" />
    <path d="M160 380 c0 -5 5 -10 10 -10 6 0 10 5 10 10 0 6 -4 10 -10 10 -5 0
-10 -4 -10 -10z" />
    <path d="M135 351 c3 -5 0 -13 -7 -17 l-12 -8 29 -8 c16 -4 31 -5 34 -3 6 6
-30 45 -41 45 -5 0 -7 -4 -3 -9z" />
    <path d="M80 296 c-6 -16 -9 -30 -7 -32 2 -2 11 4 20 14 l16 17 -9 15 -9 14
-11 -28z" />
    <path d="M220 310 c0 -5 5 -10 11 -10 5 0 7 5 4 10 -3 6 -8 10 -11 10 -2 0 -4
-4 -4 -10z" />
    <path d="M290 264 l0 -15 10 6 c6 4 8 11 5 16 -9 14 -15 11 -15 -7z" />
    <path d="M505 260 c3 -5 8 -10 11 -10 2 0 4 5 4 10 0 6 -5 10 -11 10 -5 0 -7
-4 -4 -10z" />
    <path d="M415 240 c-3 -5 -4 -10 -1 -10 2 0 11 -3 20 -6 l16 -6 0 16 c0 18
-25 22 -35 6z" />
    <path d="M475 231 c-3 -6 3 -15 14 -21 l20 -10 6 10 c3 5 3 15 0 20 -8 13 -32
13 -40 1z" />
    <path d="M240 220 c0 -5 5 -10 10 -10 6 0 10 5 10 10 0 6 -4 10 -10 10 -5 0
-10 -4 -10 -10z" />
    <path d="M105 209 c-4 -6 -5 -13 -2 -16 7 -7 27 6 27 18 0 12 -17 12 -25 -2z" />
    <path d="M196 201 c-4 -7 -5 -15 -2 -18 9 -9 19 4 14 18 l-4 13 -8 -13z" />
    <path d="M266 175 l-5 -15 14 0 c8 0 15 7 15 15 0 8 -4 15 -9 15 -5 0 -11 -7
-15 -15z" />
    <path d="M456 181 c-4 -7 -5 -15 -2 -18 9 -9 19 4 14 18 l-4 13 -8 -13z" />
    <path d="M140 160 c0 -5 5 -10 10 -10 6 0 10 5 10 10 0 6 -4 10 -10 10 -5 0
-10 -4 -10 -10z" />
    <path d="M185 161 c-3 -5 -1 -12 5 -16 l10 -6 0 15 c0 18 -6 21 -15 7z" />
    <path d="M285 90 c3 -5 8 -10 11 -10 2 0 4 5 4 10 0 6 -5 10 -11 10 -5 0 -7
-4 -4 -10z" />
  </g>
  <g transform="translate(0.000000,72.000000) scale(0.100000,-0.100000)" fill="#37b1db" stroke="none">
    <path d="M184 516 c-12 -9 -25 -12 -29 -8 -5 4 -5 2 -1 -5 l7 -12 -23 -12
c-13 -6 -25 -13 -27 -15 -5 -4 107 -154 115 -154 3 0 2 15 -2 33 -4 17 -7 40
-6 50 l1 19 -17 -14 -17 -13 14 18 14 17 11 -9 c16 -14 31 -1 34 29 l2 26 -27
32 -28 33 -21 -15z m-10 -55 c3 -5 -2 -15 -12 -22 l-17 -14 12 16 c7 9 10 19
6 22 -3 4 -4 7 0 7 3 0 8 -4 11 -9z m56 5 c0 -2 -8 -10 -17 -17 l-18 -14 14
18 c13 16 21 21 21 13z" />
    <path d="M402 193 c4 -21 33 -25 33 -3 0 8 -8 16 -18 18 l-19 4 4 -19z" />
  </g>
  <g transform="translate(0.000000,72.000000) scale(0.100000,-0.100000)" fill="#fac756" stroke="none">
    <path d="M260 475 c0 -8 6 -15 14 -15 7 0 28 -3 45 -6 l31 -6 0 15 0 15 -31 6
c-47 9 -59 7 -59 -9z" />
    <path d="M280 435 c0 -8 7 -15 15 -15 8 0 15 7 15 15 0 8 -7 15 -15 15 -8 0
-15 -7 -15 -15z" />
    <path d="M140 341 c0 -5 -10 -11 -22 -13 -13 -2 -24 -10 -26 -19 l-3 -16 33 0
c18 0 38 4 45 9 l12 10 -12 19 c-12 20 -27 25 -27 10z" />
    <path d="M475 310 c-3 -5 -3 -15 1 -21 l7 -11 8 13 c5 8 9 17 9 22 0 10 -18 9
-25 -3z" />
    <path d="M173 273 c-7 -3 -13 -13 -13 -24 l0 -19 25 0 25 0 0 14 c0 18 -22 35
-37 29z" />
    <path d="M112 205 l-13 -15 6 -20 6 -20 18 0 c10 0 24 7 32 16 l13 16 -11 16
c-14 22 -35 25 -51 7z m28 -25 c0 -5 -2 -10 -4 -10 -3 0 -8 5 -11 10 -3 6 -1
10 4 10 6 0 11 -4 11 -10z" />
    <path d="M219 200 c-18 -19 -30 -66 -22 -86 3 -7 21 -18 40 -25 l35 -11 31 30
c53 53 38 106 -32 108 l-36 1 -16 -17z m56 -41 l0 -24 -15 -3 -16 -3 2 28 c2
36 2 35 16 31 7 -3 13 -15 13 -29z" />
    <path d="M462 173 l3 -18 20 0 20 0 0 15 0 15 -23 3 -24 4 4 -19z" />
  </g>
  <g transform="translate(0.000000,72.000000) scale(0.100000,-0.100000)" fill="#e2b047" stroke="none">
    <path d="M307 477 l6 -10 -27 5 c-14 3 -27 2 -27 -1 -1 -3 -2 -19 -3 -34 l-2
-28 31 6 c16 4 38 9 48 11 l17 5 0 24 0 23 -25 4 -24 5 6 -10z" />
    <path d="M295 360 c-3 -5 -1 -10 4 -10 6 0 11 5 11 10 0 6 -2 10 -4 10 -3 0
-8 -4 -11 -10z" />
    <path d="M262 340 c5 -16 36 -22 44 -9 3 5 1 9 -5 9 -5 0 -17 3 -27 7 l-17 6
5 -13z" />
    <path d="M150 336 c0 -2 8 -10 18 -17 l17 -14 -14 18 c-13 16 -21 21 -21 13z" />
    <path d="M90 311 c-15 -29 -13 -33 11 -21 l20 11 14 -11 13 -11 6 10 c7 11
-29 25 -44 16 -5 -3 -10 -4 -10 0 0 3 10 10 23 15 l22 9 -22 0 -22 1 -11 -19z" />
    <path d="M470 305 l-12 -15 11 0 c6 0 11 5 11 11 0 5 5 7 10 4 6 -3 10 -1 10
4 0 16 -16 13 -30 -4z" />
    <path d="M165 271 c-6 -11 9 -23 19 -14 9 9 7 23 -3 23 -6 0 -12 -4 -16 -9z" />
    <path d="M210 210 l-20 -20 0 -28 0 -27 20 -13 c12 -7 18 -17 15 -22 -3 -6 -2
-10 4 -10 5 0 13 5 16 10 3 6 2 10 -2 10 -5 0 -10 11 -11 26 l-2 25 12 -7 11
-7 -7 11 c-4 7 -15 12 -24 12 l-17 0 13 9 c11 7 43 8 87 2 6 -1 4 -5 -4 -10
-8 -5 -21 -7 -30 -4 l-16 5 14 -10 14 -10 -9 -13 c-12 -20 -14 -39 -3 -39 6 0
7 -5 3 -11 l-6 -11 23 13 c13 7 26 12 29 12 5 -1 5 6 2 53 -1 11 -9 29 -17 40
l-15 19 -7 -10 c-10 -13 -43 -16 -43 -4 0 5 5 9 11 9 5 0 7 5 4 10 -9 15 -23
12 -45 -10z m89 -87 c-6 -7 -15 -10 -20 -7 -13 8 -3 21 15 21 l16 0 -11 -14z" />
    <path d="M113 208 c-12 -20 -14 -46 -3 -53 15 -9 32 4 23 18 -4 7 -6 20 -5 30
4 20 -3 22 -15 5z" />
    <path d="M478 153 c7 -3 16 -2 19 1 4 3 -2 6 -13 5 l-19 -1 13 -5z" />
  </g>
  <g transform="translate(0.000000,72.000000) scale(0.100000,-0.100000)" fill="#637ea9" stroke="none">
    <path d="M520 536 c0 -2 7 -7 16 -10 l15 -6 -6 10 c-6 10 -25 14 -25 6z" />
    <path d="M262 343 c3 -17 38 -28 38 -11 0 6 -7 8 -14 5 l-15 -6 6 15 5 14 -12
0 c-6 0 -10 -7 -8 -17z" />
    <path d="M145 340 c3 -5 8 -10 11 -10 2 0 4 5 4 10 0 6 -5 10 -11 10 -5 0 -7
-4 -4 -10z" />
    <path d="M190 340 c0 -5 5 -10 10 -10 6 0 10 5 10 10 0 6 -4 10 -10 10 -5 0
-10 -4 -10 -10z" />
    <path d="M120 306 c0 -2 7 -9 15 -16 l15 -13 -6 17 c-3 9 -10 16 -15 16 -5 0
-9 -2 -9 -4z" />
    <path d="M620 256 c0 -2 8 -10 18 -17 l17 -14 -14 18 c-13 16 -21 21 -21 13z" />
    <path d="M195 240 c-3 -5 -1 -10 4 -10 6 0 11 5 11 10 0 6 -2 10 -4 10 -3 0
-8 -4 -11 -10z" />
    <path d="M428 233 c7 -3 16 -2 19 1 4 3 -2 6 -13 5 l-19 -1 13 -5z" />
    <path d="M215 220 l-6 -10 15 0 c9 0 16 5 16 10 0 6 -4 10 -9 10 -6 0 -13 -4
-16 -10z" />
    <path d="M480 218 c0 -4 7 -8 15 -8 8 0 15 4 15 8 0 5 -7 9 -15 9 -8 0 -15 -4
-15 -9z" />
    <path d="M150 200 c0 -5 5 -10 10 -10 6 0 10 5 10 10 0 6 -4 10 -10 10 -5 0
-10 -4 -10 -10z" />
    <path d="M613 133 c9 -2 23 -2 30 0 6 3 -1 5 -18 5 l-30 0 18 -5z" />
    <path d="M200 110 c0 -5 5 -10 11 -10 5 0 7 5 4 10 -3 6 -8 10 -11 10 -2 0 -4
-4 -4 -10z" />
  </g>
  <g transform="translate(0.000000,72.000000) scale(0.100000,-0.100000)" fill="#b49652" stroke="none">
    <path d="M256 474 c-3 -9 -6 -19 -6 -23 0 -9 79 -11 84 -2 5 7 -1 9 -44 13
-22 3 -26 14 -7 21 l12 5 -16 1 c-9 1 -20 -6 -23 -15z" />
    <path d="M540 486 c0 -2 7 -7 16 -10 l15 -6 -6 10 c-6 10 -25 14 -25 6z" />
    <path d="M590 470 c0 -5 5 -10 11 -10 5 0 7 5 4 10 -3 6 -8 10 -11 10 -2 0 -4
-4 -4 -10z" />
    <path d="M645 450 c3 -5 8 -10 11 -10 2 0 4 5 4 10 0 6 -5 10 -11 10 -5 0 -7
-4 -4 -10z" />
    <path d="M270 420 l0 -10 28 6 c39 10 40 14 4 14 -18 0 -32 -5 -32 -10z" />
    <path d="M265 351 c-3 -6 -1 -11 5 -11 6 0 8 -4 5 -10 l-6 -10 16 7 c9 3 13 9
8 12 -4 3 -11 10 -14 14 -4 5 -10 4 -14 -2z" />
    <path d="M173 274 c3 -4 2 -14 -3 -24 l-9 -17 21 2 c12 1 23 7 24 14 l3 12 -6
-11 c-7 -15 -23 -1 -16 15 l5 15 -13 0 c-7 0 -9 -3 -6 -6z" />
    <path d="M221 221 l-13 -8 12 -8 c13 -8 24 -1 19 14 l-4 10 -14 -8z" />
    <path d="M111 204 l-13 -15 17 3 c10 2 20 -3 23 -11 l5 -14 -11 7 c-6 3 -14 1
-18 -6 l-7 -13 8 7 c4 4 15 2 23 -5 l16 -12 -8 13 -7 12 15 0 c20 0 21 17 2
36 -18 18 -27 17 -45 -2z m40 -11 l14 -18 -17 14 c-17 13 -22 21 -14 21 2 0
10 -8 17 -17z" />
    <path d="M285 210 c-3 -5 -2 -10 4 -10 5 0 13 5 16 10 3 6 2 10 -4 10 -5 0
-13 -4 -16 -10z" />
    <path d="M194 155 l0 -34 17 17 c9 9 12 19 8 20 -5 2 -9 10 -9 18 0 8 -4 14
-8 14 -4 0 -8 -16 -8 -35z" />
    <path d="M310 179 c0 -5 5 -7 10 -4 6 3 10 8 10 11 0 2 -4 4 -10 4 -5 0 -10
-5 -10 -11z" />
    <path d="M468 183 c6 -2 18 -2 25 0 6 3 1 5 -13 5 -14 0 -19 -2 -12 -5z" />
    <path d="M240 150 c0 -5 5 -10 11 -10 5 0 7 5 4 10 -3 6 -8 10 -11 10 -2 0 -4
-4 -4 -10z" />
  </g>
  <g transform="translate(0.000000,72.000000) scale(0.100000,-0.100000)" fill="#82724f" stroke="none">
    <path d="M288 483 c7 -3 16 -2 19 1 4 3 -2 6 -13 5 l-19 -1 13 -5z" />
    <path d="M638 453 c7 -3 16 -2 19 1 4 3 -2 6 -13 5 l-19 -1 13 -5z" />
    <path d="M154 298 l-19 -23 23 19 c21 18 27 26 19 26 -2 0 -12 -10 -23 -22z" />
    <path d="M170 250 c0 -5 5 -10 11 -10 5 0 7 5 4 10 -3 6 -8 10 -11 10 -2 0 -4
-4 -4 -10z" />
    <path d="M230 221 c0 -6 -3 -10 -7 -8 -5 1 -9 -2 -10 -7 -1 -5 -7 -12 -13 -16
-7 -4 -8 -9 -4 -12 5 -2 19 6 31 19 l22 23 -10 5 c-5 4 -9 1 -9 -4z" />
    <path d="M117 208 l-6 -17 30 1 29 1 -12 14 -11 14 -7 -12 -8 -11 -4 13 -4 13
-7 -16z" />
    <path d="M296 211 c-4 -5 -2 -12 3 -15 5 -4 12 -2 15 3 4 5 2 12 -3 15 -5 4
-12 2 -15 -3z" />
    <path d="M496 177 c3 -10 9 -15 12 -12 3 3 0 11 -7 18 l-12 12 7 -18z" />
    <path d="M105 160 c3 -5 8 -10 11 -10 2 0 4 5 4 10 0 6 -5 10 -11 10 -5 0 -7
-4 -4 -10z" />
    <path d="M300 160 l-15 -10 13 0 c6 0 12 -7 12 -15 0 -8 4 -15 10 -15 5 0 7 7
4 15 l-6 15 11 0 c6 0 11 5 11 10 0 13 -20 13 -40 0z" />
    <path d="M196 132 c-3 -5 3 -17 13 -26 l19 -17 6 9 c3 5 -3 17 -13 26 l-19 17
-6 -9z m25 -19 l14 -18 -17 14 c-17 13 -22 21 -14 21 2 0 10 -8 17 -17z" />
    <path d="M285 100 c3 -5 8 -10 11 -10 2 0 4 5 4 10 0 6 -5 10 -11 10 -5 0 -7
-4 -4 -10z" />
    <path d="M250 90 c0 -5 7 -10 16 -10 l15 0 -6 10 c-3 6 -10 10 -16 10 -5 0 -9
-4 -9 -10z" />
  </g>
  <g transform="translate(0.000000,72.000000) scale(0.100000,-0.100000)" fill="#86b9f3" stroke="none">
    <path d="M205 480 c-3 -5 -2 -10 4 -10 5 0 13 5 16 10 3 6 2 10 -4 10 -5 0
-13 -4 -16 -10z" />
    <path d="M141 456 c-8 -9 -11 -19 -7 -23 9 -9 29 13 24 27 l-4 12 -13 -16z" />
    <path d="M216 415 l-5 -15 14 0 c16 0 20 16 6 24 -5 3 -11 -1 -15 -9z" />
    <path d="M176 394 c-10 -25 1 -29 14 -5 l11 21 -10 0 c-5 0 -12 -7 -15 -16z" />
    <path d="M250 380 c0 -5 5 -10 11 -10 5 0 7 5 4 10 -3 6 -8 10 -11 10 -2 0 -4
-4 -4 -10z" />
    <path d="M290 279 c0 -5 5 -7 10 -4 6 3 10 8 10 11 0 2 -4 4 -10 4 -5 0 -10
-5 -10 -11z" />
    <path d="M622 270 c0 -14 2 -19 5 -12 2 6 2 18 0 25 -3 6 -5 1 -5 -13z" />
    <path d="M648 233 c7 -3 16 -2 19 1 4 3 -2 6 -13 5 l-19 -1 13 -5z" />
    <path d="M395 200 c-3 -5 -2 -10 4 -10 5 0 13 5 16 10 3 6 2 10 -4 10 -5 0
-13 -4 -16 -10z" />
    <path d="M618 153 c7 -3 16 -2 19 1 4 3 -2 6 -13 5 l-19 -1 13 -5z" />
  </g>
  <g transform="translate(0.000000,72.000000) scale(0.100000,-0.100000)" fill="#2a8ab5" stroke="none">
    <path d="M200 520 c0 -5 8 -13 18 -19 l17 -10 -17 -5 c-10 -3 -25 -8 -33 -11
l-15 -4 7 -16 6 -17 -14 2 c-26 4 -39 0 -39 -12 l0 -12 11 11 c6 6 19 9 29 6
l19 -5 -5 -13 c-3 -7 2 -15 10 -18 19 -7 46 1 46 14 l0 10 -20 -11 c-11 -6
-20 -9 -21 -8 0 2 -1 18 -2 36 l-2 32 11 0 c6 0 16 6 22 13 l11 13 -19 17
c-11 9 -20 13 -20 7z" />
    <path d="M227 463 c-4 -3 -7 -11 -7 -17 0 -6 5 -4 10 4 l10 15 10 -15 10 -15
0 18 c0 17 -20 23 -33 10z" />
    <path d="M165 380 c3 -5 8 -10 11 -10 2 0 4 5 4 10 0 6 -5 10 -11 10 -5 0 -7
-4 -4 -10z" />
    <path d="M206 331 l19 -18 4 10 c4 10 -17 27 -33 27 -5 0 -1 -8 10 -19z" />
    <path d="M400 200 l-15 -10 15 -9 c17 -12 30 -5 30 15 0 16 -9 18 -30 4z" />
  </g>
  <g transform="translate(0.000000,72.000000) scale(0.100000,-0.100000)" fill="#fbd68e" stroke="none">
    <path d="M635 630 c3 -5 8 -10 11 -10 2 0 4 5 4 10 0 6 -5 10 -11 10 -5 0 -7
-4 -4 -10z" />
    <path d="M215 200 c-27 -29 -15 -32 18 -4 l28 24 -14 0 c-8 0 -22 -9 -32 -20z" />
    <path d="M293 192 c20 -22 22 -53 5 -70 -7 -7 -23 -12 -37 -12 l-25 0 10 -10
11 -11 27 10 26 11 10 26 11 27 -16 23 c-8 13 -21 24 -27 24 l-11 0 16 -18z" />
    <path d="M200 141 c0 -5 5 -13 10 -16 6 -3 10 -2 10 4 0 5 -4 13 -10 16 -5 3
-10 2 -10 -4z" />
  </g>
  <g transform="translate(0.000000,72.000000) scale(0.100000,-0.100000)" fill="#4ec3e8" stroke="none">
    <path d="M176 445 c-11 -8 -15 -15 -9 -15 6 0 16 7 23 15 16 19 11 19 -14 0z" />
    <path d="M186 421 c-3 -5 1 -14 8 -20 l14 -12 7 11 6 10 -13 -2 c-7 -2 -12 3
-10 10 2 14 -4 16 -12 3z" />
    <path d="M405 199 c-4 -5 -4 -13 -1 -16 3 -4 6 0 6 8 l0 14 10 -15 10 -15 0
12 c0 17 -17 25 -25 12z" />
  </g>
  <g transform="translate(0.000000,72.000000) scale(0.100000,-0.100000)" fill="#ffe6ad" stroke="none">
    <path d="M220 200 c-11 -11 -20 -30 -19 -42 l1 -23 8 28 c5 16 17 35 27 43 10
7 15 14 11 14 -5 0 -17 -9 -28 -20z" />
    <path d="M291 120 c-13 -11 -19 -20 -14 -20 6 0 18 9 28 20 23 25 17 25 -14 0z" />
    <path d="M222 114 c10 -10 20 -16 22 -13 3 3 -5 11 -17 18 l-22 13 17 -18z" />
  </g>
</svg>